
<svg height="1213pt" viewBox="0.00 0.00 211.00 1213.00" width="211pt" xmlns="http://www.w3.org/2000/svg" xmlns:xlink="http://www.w3.org/1999/xlink">
<g class="graph" id="graph0" transform="scale(1 1) rotate(0) translate(4 1209)">
<title>G</title>
<polygon fill="white" points="-4,4 -4,-1209 207,-1209 207,4 -4,4" stroke="none"/>
<!-- 2057731973864 -->
<g class="node" id="node1"><title>2057731973864</title>
<polygon fill="none" points="14.5,-1168.5 14.5,-1204.5 188.5,-1204.5 188.5,-1168.5 14.5,-1168.5" stroke="black"/>
<text font-family="Times New Roman,serif" font-size="14.00" text-anchor="middle" x="101.5" y="-1182.8">lambda_input_1: InputLayer</text>
</g>
<!-- 2057731973584 -->
<g class="node" id="node2"><title>2057731973584</title>
<polygon fill="none" points="39.5,-1095.5 39.5,-1131.5 163.5,-1131.5 163.5,-1095.5 39.5,-1095.5" stroke="black"/>
<text font-family="Times New Roman,serif" font-size="14.00" text-anchor="middle" x="101.5" y="-1109.8">lambda_1: Lambda</text>
</g>
<!-- 2057731973864&#45;&gt;2057731973584 -->
<g class="edge" id="edge1"><title>2057731973864-&gt;2057731973584</title>
<path d="M101.5,-1168.31C101.5,-1160.29 101.5,-1150.55 101.5,-1141.57" fill="none" stroke="black"/>
<polygon fill="black" points="105,-1141.53 101.5,-1131.53 98.0001,-1141.53 105,-1141.53" stroke="black"/>
</g>
<!-- 2057731973696 -->
<g class="node" id="node3"><title>2057731973696</title>
<polygon fill="none" points="15.5,-1022.5 15.5,-1058.5 187.5,-1058.5 187.5,-1022.5 15.5,-1022.5" stroke="black"/>
<text font-family="Times New Roman,serif" font-size="14.00" text-anchor="middle" x="101.5" y="-1036.8">cropping2d_1: Cropping2D</text>
</g>
<!-- 2057731973584&#45;&gt;2057731973696 -->
<g class="edge" id="edge2"><title>2057731973584-&gt;2057731973696</title>
<path d="M101.5,-1095.31C101.5,-1087.29 101.5,-1077.55 101.5,-1068.57" fill="none" stroke="black"/>
<polygon fill="black" points="105,-1068.53 101.5,-1058.53 98.0001,-1068.53 105,-1068.53" stroke="black"/>
</g>
<!-- 2057731975656 -->
<g class="node" id="node4"><title>2057731975656</title>
<polygon fill="none" points="0,-949.5 0,-985.5 203,-985.5 203,-949.5 0,-949.5" stroke="black"/>
<text font-family="Times New Roman,serif" font-size="14.00" text-anchor="middle" x="101.5" y="-963.8">convolution2d_1: Convolution2D</text>
</g>
<!-- 2057731973696&#45;&gt;2057731975656 -->
<g class="edge" id="edge3"><title>2057731973696-&gt;2057731975656</title>
<path d="M101.5,-1022.31C101.5,-1014.29 101.5,-1004.55 101.5,-995.569" fill="none" stroke="black"/>
<polygon fill="black" points="105,-995.529 101.5,-985.529 98.0001,-995.529 105,-995.529" stroke="black"/>
</g>
<!-- 2057732038952 -->
<g class="node" id="node5"><title>2057732038952</title>
<polygon fill="none" points="0,-876.5 0,-912.5 203,-912.5 203,-876.5 0,-876.5" stroke="black"/>
<text font-family="Times New Roman,serif" font-size="14.00" text-anchor="middle" x="101.5" y="-890.8">convolution2d_2: Convolution2D</text>
</g>
<!-- 2057731975656&#45;&gt;2057732038952 -->
<g class="edge" id="edge4"><title>2057731975656-&gt;2057732038952</title>
<path d="M101.5,-949.313C101.5,-941.289 101.5,-931.547 101.5,-922.569" fill="none" stroke="black"/>
<polygon fill="black" points="105,-922.529 101.5,-912.529 98.0001,-922.529 105,-922.529" stroke="black"/>
</g>
<!-- 2057732042536 -->
<g class="node" id="node6"><title>2057732042536</title>
<polygon fill="none" points="0,-803.5 0,-839.5 203,-839.5 203,-803.5 0,-803.5" stroke="black"/>
<text font-family="Times New Roman,serif" font-size="14.00" text-anchor="middle" x="101.5" y="-817.8">convolution2d_3: Convolution2D</text>
</g>
<!-- 2057732038952&#45;&gt;2057732042536 -->
<g class="edge" id="edge5"><title>2057732038952-&gt;2057732042536</title>
<path d="M101.5,-876.313C101.5,-868.289 101.5,-858.547 101.5,-849.569" fill="none" stroke="black"/>
<polygon fill="black" points="105,-849.529 101.5,-839.529 98.0001,-849.529 105,-849.529" stroke="black"/>
</g>
<!-- 2057732296040 -->
<g class="node" id="node7"><title>2057732296040</title>
<polygon fill="none" points="0,-730.5 0,-766.5 203,-766.5 203,-730.5 0,-730.5" stroke="black"/>
<text font-family="Times New Roman,serif" font-size="14.00" text-anchor="middle" x="101.5" y="-744.8">convolution2d_4: Convolution2D</text>
</g>
<!-- 2057732042536&#45;&gt;2057732296040 -->
<g class="edge" id="edge6"><title>2057732042536-&gt;2057732296040</title>
<path d="M101.5,-803.313C101.5,-795.289 101.5,-785.547 101.5,-776.569" fill="none" stroke="black"/>
<polygon fill="black" points="105,-776.529 101.5,-766.529 98.0001,-776.529 105,-776.529" stroke="black"/>
</g>
<!-- 2057732459712 -->
<g class="node" id="node8"><title>2057732459712</title>
<polygon fill="none" points="0,-657.5 0,-693.5 203,-693.5 203,-657.5 0,-657.5" stroke="black"/>
<text font-family="Times New Roman,serif" font-size="14.00" text-anchor="middle" x="101.5" y="-671.8">convolution2d_5: Convolution2D</text>
</g>
<!-- 2057732296040&#45;&gt;2057732459712 -->
<g class="edge" id="edge7"><title>2057732296040-&gt;2057732459712</title>
<path d="M101.5,-730.313C101.5,-722.289 101.5,-712.547 101.5,-703.569" fill="none" stroke="black"/>
<polygon fill="black" points="105,-703.529 101.5,-693.529 98.0001,-703.529 105,-703.529" stroke="black"/>
</g>
<!-- 2057732588880 -->
<g class="node" id="node9"><title>2057732588880</title>
<polygon fill="none" points="47,-584.5 47,-620.5 156,-620.5 156,-584.5 47,-584.5" stroke="black"/>
<text font-family="Times New Roman,serif" font-size="14.00" text-anchor="middle" x="101.5" y="-598.8">flatten_1: Flatten</text>
</g>
<!-- 2057732459712&#45;&gt;2057732588880 -->
<g class="edge" id="edge8"><title>2057732459712-&gt;2057732588880</title>
<path d="M101.5,-657.313C101.5,-649.289 101.5,-639.547 101.5,-630.569" fill="none" stroke="black"/>
<polygon fill="black" points="105,-630.529 101.5,-620.529 98.0001,-630.529 105,-630.529" stroke="black"/>
</g>
<!-- 2057732729936 -->
<g class="node" id="node10"><title>2057732729936</title>
<polygon fill="none" points="36.5,-511.5 36.5,-547.5 166.5,-547.5 166.5,-511.5 36.5,-511.5" stroke="black"/>
<text font-family="Times New Roman,serif" font-size="14.00" text-anchor="middle" x="101.5" y="-525.8">dropout_1: Dropout</text>
</g>
<!-- 2057732588880&#45;&gt;2057732729936 -->
<g class="edge" id="edge9"><title>2057732588880-&gt;2057732729936</title>
<path d="M101.5,-584.313C101.5,-576.289 101.5,-566.547 101.5,-557.569" fill="none" stroke="black"/>
<polygon fill="black" points="105,-557.529 101.5,-547.529 98.0001,-557.529 105,-557.529" stroke="black"/>
</g>
<!-- 2058874274648 -->
<g class="node" id="node11"><title>2058874274648</title>
<polygon fill="none" points="49.5,-438.5 49.5,-474.5 153.5,-474.5 153.5,-438.5 49.5,-438.5" stroke="black"/>
<text font-family="Times New Roman,serif" font-size="14.00" text-anchor="middle" x="101.5" y="-452.8">dense_1: Dense</text>
</g>
<!-- 2057732729936&#45;&gt;2058874274648 -->
<g class="edge" id="edge10"><title>2057732729936-&gt;2058874274648</title>
<path d="M101.5,-511.313C101.5,-503.289 101.5,-493.547 101.5,-484.569" fill="none" stroke="black"/>
<polygon fill="black" points="105,-484.529 101.5,-474.529 98.0001,-484.529 105,-484.529" stroke="black"/>
</g>
<!-- 2057732885752 -->
<g class="node" id="node12"><title>2057732885752</title>
<polygon fill="none" points="36.5,-365.5 36.5,-401.5 166.5,-401.5 166.5,-365.5 36.5,-365.5" stroke="black"/>
<text font-family="Times New Roman,serif" font-size="14.00" text-anchor="middle" x="101.5" y="-379.8">dropout_2: Dropout</text>
</g>
<!-- 2058874274648&#45;&gt;2057732885752 -->
<g class="edge" id="edge11"><title>2058874274648-&gt;2057732885752</title>
<path d="M101.5,-438.313C101.5,-430.289 101.5,-420.547 101.5,-411.569" fill="none" stroke="black"/>
<polygon fill="black" points="105,-411.529 101.5,-401.529 98.0001,-411.529 105,-411.529" stroke="black"/>
</g>
<!-- 2057735052704 -->
<g class="node" id="node13"><title>2057735052704</title>
<polygon fill="none" points="49.5,-292.5 49.5,-328.5 153.5,-328.5 153.5,-292.5 49.5,-292.5" stroke="black"/>
<text font-family="Times New Roman,serif" font-size="14.00" text-anchor="middle" x="101.5" y="-306.8">dense_2: Dense</text>
</g>
<!-- 2057732885752&#45;&gt;2057735052704 -->
<g class="edge" id="edge12"><title>2057732885752-&gt;2057735052704</title>
<path d="M101.5,-365.313C101.5,-357.289 101.5,-347.547 101.5,-338.569" fill="none" stroke="black"/>
<polygon fill="black" points="105,-338.529 101.5,-328.529 98.0001,-338.529 105,-338.529" stroke="black"/>
</g>
<!-- 2057735120488 -->
<g class="node" id="node14"><title>2057735120488</title>
<polygon fill="none" points="36.5,-219.5 36.5,-255.5 166.5,-255.5 166.5,-219.5 36.5,-219.5" stroke="black"/>
<text font-family="Times New Roman,serif" font-size="14.00" text-anchor="middle" x="101.5" y="-233.8">dropout_3: Dropout</text>
</g>
<!-- 2057735052704&#45;&gt;2057735120488 -->
<g class="edge" id="edge13"><title>2057735052704-&gt;2057735120488</title>
<path d="M101.5,-292.313C101.5,-284.289 101.5,-274.547 101.5,-265.569" fill="none" stroke="black"/>
<polygon fill="black" points="105,-265.529 101.5,-255.529 98.0001,-265.529 105,-265.529" stroke="black"/>
</g>
<!-- 2057735342848 -->
<g class="node" id="node15"><title>2057735342848</title>
<polygon fill="none" points="49.5,-146.5 49.5,-182.5 153.5,-182.5 153.5,-146.5 49.5,-146.5" stroke="black"/>
<text font-family="Times New Roman,serif" font-size="14.00" text-anchor="middle" x="101.5" y="-160.8">dense_3: Dense</text>
</g>
<!-- 2057735120488&#45;&gt;2057735342848 -->
<g class="edge" id="edge14"><title>2057735120488-&gt;2057735342848</title>
<path d="M101.5,-219.313C101.5,-211.289 101.5,-201.547 101.5,-192.569" fill="none" stroke="black"/>
<polygon fill="black" points="105,-192.529 101.5,-182.529 98.0001,-192.529 105,-192.529" stroke="black"/>
</g>
<!-- 2057735405640 -->
<g class="node" id="node16"><title>2057735405640</title>
<polygon fill="none" points="36.5,-73.5 36.5,-109.5 166.5,-109.5 166.5,-73.5 36.5,-73.5" stroke="black"/>
<text font-family="Times New Roman,serif" font-size="14.00" text-anchor="middle" x="101.5" y="-87.8">dropout_4: Dropout</text>
</g>
<!-- 2057735342848&#45;&gt;2057735405640 -->
<g class="edge" id="edge15"><title>2057735342848-&gt;2057735405640</title>
<path d="M101.5,-146.313C101.5,-138.289 101.5,-128.547 101.5,-119.569" fill="none" stroke="black"/>
<polygon fill="black" points="105,-119.529 101.5,-109.529 98.0001,-119.529 105,-119.529" stroke="black"/>
</g>
<!-- 2057735625416 -->
<g class="node" id="node17"><title>2057735625416</title>
<polygon fill="none" points="49.5,-0.5 49.5,-36.5 153.5,-36.5 153.5,-0.5 49.5,-0.5" stroke="black"/>
<text font-family="Times New Roman,serif" font-size="14.00" text-anchor="middle" x="101.5" y="-14.8">dense_4: Dense</text>
</g>
<!-- 2057735405640&#45;&gt;2057735625416 -->
<g class="edge" id="edge16"><title>2057735405640-&gt;2057735625416</title>
<path d="M101.5,-73.3129C101.5,-65.2895 101.5,-55.5475 101.5,-46.5691" fill="none" stroke="black"/>
<polygon fill="black" points="105,-46.5288 101.5,-36.5288 98.0001,-46.5289 105,-46.5288" stroke="black"/>
</g>
</g>
</svg>