
<svg height="921pt" viewBox="0.00 0.00 211.00 921.00" width="211pt" xmlns="http://www.w3.org/2000/svg" xmlns:xlink="http://www.w3.org/1999/xlink">
<g class="graph" id="graph0" transform="scale(1 1) rotate(0) translate(4 917)">
<title>G</title>
<polygon fill="white" points="-4,4 -4,-917 207,-917 207,4 -4,4" stroke="none"/>
<!-- 2134383390848 -->
<g class="node" id="node1"><title>2134383390848</title>
<polygon fill="none" points="14.5,-876.5 14.5,-912.5 188.5,-912.5 188.5,-876.5 14.5,-876.5" stroke="black"/>
<text font-family="Times New Roman,serif" font-size="14.00" text-anchor="middle" x="101.5" y="-890.8">lambda_input_1: InputLayer</text>
</g>
<!-- 2134383361832 -->
<g class="node" id="node2"><title>2134383361832</title>
<polygon fill="none" points="39.5,-803.5 39.5,-839.5 163.5,-839.5 163.5,-803.5 39.5,-803.5" stroke="black"/>
<text font-family="Times New Roman,serif" font-size="14.00" text-anchor="middle" x="101.5" y="-817.8">lambda_1: Lambda</text>
</g>
<!-- 2134383390848&#45;&gt;2134383361832 -->
<g class="edge" id="edge1"><title>2134383390848-&gt;2134383361832</title>
<path d="M101.5,-876.313C101.5,-868.289 101.5,-858.547 101.5,-849.569" fill="none" stroke="black"/>
<polygon fill="black" points="105,-849.529 101.5,-839.529 98.0001,-849.529 105,-849.529" stroke="black"/>
</g>
<!-- 2134383361944 -->
<g class="node" id="node3"><title>2134383361944</title>
<polygon fill="none" points="15.5,-730.5 15.5,-766.5 187.5,-766.5 187.5,-730.5 15.5,-730.5" stroke="black"/>
<text font-family="Times New Roman,serif" font-size="14.00" text-anchor="middle" x="101.5" y="-744.8">cropping2d_1: Cropping2D</text>
</g>
<!-- 2134383361832&#45;&gt;2134383361944 -->
<g class="edge" id="edge2"><title>2134383361832-&gt;2134383361944</title>
<path d="M101.5,-803.313C101.5,-795.289 101.5,-785.547 101.5,-776.569" fill="none" stroke="black"/>
<polygon fill="black" points="105,-776.529 101.5,-766.529 98.0001,-776.529 105,-776.529" stroke="black"/>
</g>
<!-- 2134383392808 -->
<g class="node" id="node4"><title>2134383392808</title>
<polygon fill="none" points="0,-657.5 0,-693.5 203,-693.5 203,-657.5 0,-657.5" stroke="black"/>
<text font-family="Times New Roman,serif" font-size="14.00" text-anchor="middle" x="101.5" y="-671.8">convolution2d_1: Convolution2D</text>
</g>
<!-- 2134383361944&#45;&gt;2134383392808 -->
<g class="edge" id="edge3"><title>2134383361944-&gt;2134383392808</title>
<path d="M101.5,-730.313C101.5,-722.289 101.5,-712.547 101.5,-703.569" fill="none" stroke="black"/>
<polygon fill="black" points="105,-703.529 101.5,-693.529 98.0001,-703.529 105,-703.529" stroke="black"/>
</g>
<!-- 2134383394600 -->
<g class="node" id="node5"><title>2134383394600</title>
<polygon fill="none" points="0,-584.5 0,-620.5 203,-620.5 203,-584.5 0,-584.5" stroke="black"/>
<text font-family="Times New Roman,serif" font-size="14.00" text-anchor="middle" x="101.5" y="-598.8">convolution2d_2: Convolution2D</text>
</g>
<!-- 2134383392808&#45;&gt;2134383394600 -->
<g class="edge" id="edge4"><title>2134383392808-&gt;2134383394600</title>
<path d="M101.5,-657.313C101.5,-649.289 101.5,-639.547 101.5,-630.569" fill="none" stroke="black"/>
<polygon fill="black" points="105,-630.529 101.5,-620.529 98.0001,-630.529 105,-630.529" stroke="black"/>
</g>
<!-- 2134383472256 -->
<g class="node" id="node6"><title>2134383472256</title>
<polygon fill="none" points="0,-511.5 0,-547.5 203,-547.5 203,-511.5 0,-511.5" stroke="black"/>
<text font-family="Times New Roman,serif" font-size="14.00" text-anchor="middle" x="101.5" y="-525.8">convolution2d_3: Convolution2D</text>
</g>
<!-- 2134383394600&#45;&gt;2134383472256 -->
<g class="edge" id="edge5"><title>2134383394600-&gt;2134383472256</title>
<path d="M101.5,-584.313C101.5,-576.289 101.5,-566.547 101.5,-557.569" fill="none" stroke="black"/>
<polygon fill="black" points="105,-557.529 101.5,-547.529 98.0001,-557.529 105,-557.529" stroke="black"/>
</g>
<!-- 2134383730248 -->
<g class="node" id="node7"><title>2134383730248</title>
<polygon fill="none" points="0,-438.5 0,-474.5 203,-474.5 203,-438.5 0,-438.5" stroke="black"/>
<text font-family="Times New Roman,serif" font-size="14.00" text-anchor="middle" x="101.5" y="-452.8">convolution2d_4: Convolution2D</text>
</g>
<!-- 2134383472256&#45;&gt;2134383730248 -->
<g class="edge" id="edge6"><title>2134383472256-&gt;2134383730248</title>
<path d="M101.5,-511.313C101.5,-503.289 101.5,-493.547 101.5,-484.569" fill="none" stroke="black"/>
<polygon fill="black" points="105,-484.529 101.5,-474.529 98.0001,-484.529 105,-484.529" stroke="black"/>
</g>
<!-- 2134383875800 -->
<g class="node" id="node8"><title>2134383875800</title>
<polygon fill="none" points="0,-365.5 0,-401.5 203,-401.5 203,-365.5 0,-365.5" stroke="black"/>
<text font-family="Times New Roman,serif" font-size="14.00" text-anchor="middle" x="101.5" y="-379.8">convolution2d_5: Convolution2D</text>
</g>
<!-- 2134383730248&#45;&gt;2134383875800 -->
<g class="edge" id="edge7"><title>2134383730248-&gt;2134383875800</title>
<path d="M101.5,-438.313C101.5,-430.289 101.5,-420.547 101.5,-411.569" fill="none" stroke="black"/>
<polygon fill="black" points="105,-411.529 101.5,-401.529 98.0001,-411.529 105,-411.529" stroke="black"/>
</g>
<!-- 2134384006480 -->
<g class="node" id="node9"><title>2134384006480</title>
<polygon fill="none" points="47,-292.5 47,-328.5 156,-328.5 156,-292.5 47,-292.5" stroke="black"/>
<text font-family="Times New Roman,serif" font-size="14.00" text-anchor="middle" x="101.5" y="-306.8">flatten_1: Flatten</text>
</g>
<!-- 2134383875800&#45;&gt;2134384006480 -->
<g class="edge" id="edge8"><title>2134383875800-&gt;2134384006480</title>
<path d="M101.5,-365.313C101.5,-357.289 101.5,-347.547 101.5,-338.569" fill="none" stroke="black"/>
<polygon fill="black" points="105,-338.529 101.5,-328.529 98.0001,-338.529 105,-338.529" stroke="black"/>
</g>
<!-- 2134384160272 -->
<g class="node" id="node10"><title>2134384160272</title>
<polygon fill="none" points="49.5,-219.5 49.5,-255.5 153.5,-255.5 153.5,-219.5 49.5,-219.5" stroke="black"/>
<text font-family="Times New Roman,serif" font-size="14.00" text-anchor="middle" x="101.5" y="-233.8">dense_1: Dense</text>
</g>
<!-- 2134384006480&#45;&gt;2134384160272 -->
<g class="edge" id="edge9"><title>2134384006480-&gt;2134384160272</title>
<path d="M101.5,-292.313C101.5,-284.289 101.5,-274.547 101.5,-265.569" fill="none" stroke="black"/>
<polygon fill="black" points="105,-265.529 101.5,-255.529 98.0001,-265.529 105,-265.529" stroke="black"/>
</g>
<!-- 2134384322040 -->
<g class="node" id="node11"><title>2134384322040</title>
<polygon fill="none" points="49.5,-146.5 49.5,-182.5 153.5,-182.5 153.5,-146.5 49.5,-146.5" stroke="black"/>
<text font-family="Times New Roman,serif" font-size="14.00" text-anchor="middle" x="101.5" y="-160.8">dense_2: Dense</text>
</g>
<!-- 2134384160272&#45;&gt;2134384322040 -->
<g class="edge" id="edge10"><title>2134384160272-&gt;2134384322040</title>
<path d="M101.5,-219.313C101.5,-211.289 101.5,-201.547 101.5,-192.569" fill="none" stroke="black"/>
<polygon fill="black" points="105,-192.529 101.5,-182.529 98.0001,-192.529 105,-192.529" stroke="black"/>
</g>
<!-- 2134386317688 -->
<g class="node" id="node12"><title>2134386317688</title>
<polygon fill="none" points="49.5,-73.5 49.5,-109.5 153.5,-109.5 153.5,-73.5 49.5,-73.5" stroke="black"/>
<text font-family="Times New Roman,serif" font-size="14.00" text-anchor="middle" x="101.5" y="-87.8">dense_3: Dense</text>
</g>
<!-- 2134384322040&#45;&gt;2134386317688 -->
<g class="edge" id="edge11"><title>2134384322040-&gt;2134386317688</title>
<path d="M101.5,-146.313C101.5,-138.289 101.5,-128.547 101.5,-119.569" fill="none" stroke="black"/>
<polygon fill="black" points="105,-119.529 101.5,-109.529 98.0001,-119.529 105,-119.529" stroke="black"/>
</g>
<!-- 2134386411112 -->
<g class="node" id="node13"><title>2134386411112</title>
<polygon fill="none" points="49.5,-0.5 49.5,-36.5 153.5,-36.5 153.5,-0.5 49.5,-0.5" stroke="black"/>
<text font-family="Times New Roman,serif" font-size="14.00" text-anchor="middle" x="101.5" y="-14.8">dense_4: Dense</text>
</g>
<!-- 2134386317688&#45;&gt;2134386411112 -->
<g class="edge" id="edge12"><title>2134386317688-&gt;2134386411112</title>
<path d="M101.5,-73.3129C101.5,-65.2895 101.5,-55.5475 101.5,-46.5691" fill="none" stroke="black"/>
<polygon fill="black" points="105,-46.5288 101.5,-36.5288 98.0001,-46.5289 105,-46.5288" stroke="black"/>
</g>
</g>
</svg>